%TF.GenerationSoftware,KiCad,Pcbnew,9.0.3*%
%TF.CreationDate,2026-01-06T15:55:56+03:00*%
%TF.ProjectId,Keyboard,4b657962-6f61-4726-942e-6b696361645f,rev?*%
%TF.SameCoordinates,Original*%
%TF.FileFunction,Profile,NP*%
%FSLAX46Y46*%
G04 Gerber Fmt 4.6, Leading zero omitted, Abs format (unit mm)*
G04 Created by KiCad (PCBNEW 9.0.3) date 2026-01-06 15:55:56*
%MOMM*%
%LPD*%
G01*
G04 APERTURE LIST*
%TA.AperFunction,Profile*%
%ADD10C,0.050000*%
%TD*%
G04 APERTURE END LIST*
D10*
X317750000Y-78500000D02*
G75*
G02*
X319499998Y-78499988I874999J-24997D01*
G01*
X319500011Y-84499985D02*
G75*
G02*
X317749999Y-84499997I-875006J24997D01*
G01*
X319500012Y-56999988D02*
G75*
G02*
X317750000Y-57000000I-875006J24997D01*
G01*
X317750001Y-51000003D02*
G75*
G02*
X319499999Y-50999991I874999J-24997D01*
G01*
X321500000Y-57000000D02*
X321500000Y-78500000D01*
X321500000Y-84500000D02*
X321500000Y-96982235D01*
X315750000Y-84500000D02*
X315750000Y-97000000D01*
X315750000Y-57000000D02*
X315750000Y-78500000D01*
X321500000Y-39982235D02*
X321500000Y-51000000D01*
X315750000Y-40000000D02*
X315750000Y-51000000D01*
X322727669Y-130966566D02*
X322727669Y-113982235D01*
X322727669Y-113982235D02*
X319227669Y-113982235D01*
X405977669Y-113982235D02*
X405977669Y-130982235D01*
X405977669Y-22965985D02*
X409727669Y-22982235D01*
X321500000Y-39982235D02*
X319227669Y-39982235D01*
X405977669Y-39982235D02*
X405977669Y-96982235D01*
X319227669Y-96982235D02*
X321500000Y-96982235D01*
X405977669Y-5982235D02*
X405977669Y-22965985D01*
X409727669Y-96982235D02*
X409727669Y-113982235D01*
X319227669Y-22982235D02*
X322977669Y-22982235D01*
X409727669Y-113982235D02*
X405977669Y-113982235D01*
X405977669Y-130982235D02*
X322727669Y-130966566D01*
X409727669Y-22982235D02*
X409727669Y-39982235D01*
X322977669Y-5982235D02*
X405977669Y-5982235D01*
X319227669Y-39982235D02*
X319227669Y-22982235D01*
X405977669Y-96982235D02*
X409727669Y-96982235D01*
X409727669Y-39982235D02*
X405977669Y-39982235D01*
X319227669Y-113982235D02*
X319227669Y-96982235D01*
X322977669Y-22982235D02*
X322977669Y-5982235D01*
X4000000Y-137000000D02*
G75*
G02*
X0Y-133000000I0J4000000D01*
G01*
X314500000Y-114000000D02*
X314500000Y-128500000D01*
X2500000Y-114000000D02*
X0Y-114000000D01*
X317250000Y-133000000D02*
G75*
G02*
X313250000Y-137000000I-4000000J0D01*
G01*
X8500000Y-133000000D02*
G75*
G02*
X4500000Y-137000000I-4000000J0D01*
G01*
X314500000Y-128500000D02*
X317250000Y-128500000D01*
X189000000Y-133000000D02*
X189000000Y-132250000D01*
X0Y-129000000D02*
X0Y-133000000D01*
X4000000Y0D02*
X69000000Y0D01*
X101000000Y-133000000D02*
X101000000Y-132250000D01*
X189000000Y-4000000D02*
G75*
G02*
X193000000Y0I4000000J0D01*
G01*
X0Y-129000000D02*
X2500000Y-129000000D01*
X105000000Y0D02*
G75*
G02*
X109000000Y-4000000I0J-4000000D01*
G01*
X2500000Y-40000000D02*
X0Y-40000000D01*
X109000000Y-8000000D02*
X189000000Y-8000000D01*
X109000000Y-133000000D02*
G75*
G02*
X105000000Y-137000000I-4000000J0D01*
G01*
X197000000Y-132250000D02*
X197000000Y-133000000D01*
X0Y-114000000D02*
X0Y-97000000D01*
X308750000Y-8000000D02*
X304750000Y-8000000D01*
X69000000Y0D02*
G75*
G02*
X73000000Y-4000000I0J-4000000D01*
G01*
X308750000Y-4000000D02*
G75*
G02*
X312750000Y0I4000000J0D01*
G01*
X0Y-8000000D02*
X0Y-4000000D01*
X8500000Y-132250000D02*
X8500000Y-133000000D01*
X315750000Y-97000000D02*
X317250000Y-97000000D01*
X314500000Y-8500000D02*
X314500000Y-23000000D01*
X313250000Y-137000000D02*
X256250000Y-137000000D01*
X189000000Y-8000000D02*
X189000000Y-4000000D01*
X2500000Y-8000000D02*
X0Y-8000000D01*
X2500000Y-97000000D02*
X2500000Y-40000000D01*
X317250000Y-128500000D02*
X317250000Y-133000000D01*
X105000000Y-137000000D02*
G75*
G02*
X101000000Y-133000000I0J4000000D01*
G01*
X2500000Y-23000000D02*
X2500000Y-8000000D01*
X314500000Y-23000000D02*
X317250000Y-23000000D01*
X317250000Y-97000000D02*
X317250000Y-114000000D01*
X0Y-4000000D02*
G75*
G02*
X4000000Y0I4000000J0D01*
G01*
X252250000Y-133000000D02*
X252250000Y-132250000D01*
X2500000Y-129000000D02*
X2500000Y-114000000D01*
X0Y-97000000D02*
X2500000Y-97000000D01*
X317250000Y-8500000D02*
X317250000Y-4000000D01*
X317250000Y-8500000D02*
X314500000Y-8500000D01*
X101000000Y-4000000D02*
G75*
G02*
X105000000Y0I4000000J0D01*
G01*
X313250000Y0D02*
G75*
G02*
X317250000Y-4000000I0J-4000000D01*
G01*
X101000000Y-132250000D02*
X8500000Y-132250000D01*
X193000000Y-137000000D02*
G75*
G02*
X189000000Y-133000000I0J4000000D01*
G01*
X101000000Y-8000000D02*
X101000000Y-4000000D01*
X4500000Y-137000000D02*
X4000000Y-137000000D01*
X197000000Y-133000000D02*
G75*
G02*
X193000000Y-137000000I-4000000J0D01*
G01*
X189000000Y-132250000D02*
X109000000Y-132250000D01*
X252250000Y-132250000D02*
X197000000Y-132250000D01*
X0Y-40000000D02*
X0Y-23000000D01*
X73000000Y-8000000D02*
X101000000Y-8000000D01*
X197000000Y-8000000D02*
X304750000Y-8000000D01*
X256250000Y-137000000D02*
G75*
G02*
X252250000Y-133000000I0J4000000D01*
G01*
X109000000Y-132250000D02*
X109000000Y-133000000D01*
X317250000Y-114000000D02*
X314500000Y-114000000D01*
X308750000Y-4000000D02*
X308750000Y-8000000D01*
X317250000Y-40000000D02*
X315750000Y-40000000D01*
X73000000Y-4000000D02*
X73000000Y-8000000D01*
X197000000Y-4000000D02*
X197000000Y-8000000D01*
X109000000Y-4000000D02*
X109000000Y-8000000D01*
X0Y-23000000D02*
X2500000Y-23000000D01*
X312750000Y0D02*
X313250000Y0D01*
X193000000Y0D02*
G75*
G02*
X197000000Y-4000000I0J-4000000D01*
G01*
X317250000Y-23000000D02*
X317250000Y-40000000D01*
%TO.C,REF\u002A\u002A*%
X315749999Y-84499997D02*
G75*
G02*
X317749999Y-84499997I1000000J0D01*
G01*
X317749999Y-78499997D02*
G75*
G02*
X315749999Y-78499997I-1000000J0D01*
G01*
X321499999Y-78499997D02*
G75*
G02*
X319499999Y-78499997I-1000000J0D01*
G01*
X319499999Y-84499997D02*
G75*
G02*
X321499999Y-84499997I1000000J0D01*
G01*
X315750000Y-57000000D02*
G75*
G02*
X317750000Y-57000000I1000000J0D01*
G01*
X317750000Y-51000000D02*
G75*
G02*
X315750000Y-51000000I-1000000J0D01*
G01*
X321500000Y-51000000D02*
G75*
G02*
X319500000Y-51000000I-1000000J0D01*
G01*
X319500000Y-57000000D02*
G75*
G02*
X321500000Y-57000000I1000000J0D01*
G01*
%TD*%
M02*
