%TF.GenerationSoftware,KiCad,Pcbnew,9.0.3*%
%TF.CreationDate,2026-01-06T15:55:56+03:00*%
%TF.ProjectId,Keyboard,4b657962-6f61-4726-942e-6b696361645f,rev?*%
%TF.SameCoordinates,Original*%
%TF.FileFunction,Paste,Bot*%
%TF.FilePolarity,Positive*%
%FSLAX46Y46*%
G04 Gerber Fmt 4.6, Leading zero omitted, Abs format (unit mm)*
G04 Created by KiCad (PCBNEW 9.0.3) date 2026-01-06 15:55:56*
%MOMM*%
%LPD*%
G01*
G04 APERTURE LIST*
G04 Aperture macros list*
%AMRoundRect*
0 Rectangle with rounded corners*
0 $1 Rounding radius*
0 $2 $3 $4 $5 $6 $7 $8 $9 X,Y pos of 4 corners*
0 Add a 4 corners polygon primitive as box body*
4,1,4,$2,$3,$4,$5,$6,$7,$8,$9,$2,$3,0*
0 Add four circle primitives for the rounded corners*
1,1,$1+$1,$2,$3*
1,1,$1+$1,$4,$5*
1,1,$1+$1,$6,$7*
1,1,$1+$1,$8,$9*
0 Add four rect primitives between the rounded corners*
20,1,$1+$1,$2,$3,$4,$5,0*
20,1,$1+$1,$4,$5,$6,$7,0*
20,1,$1+$1,$6,$7,$8,$9,0*
20,1,$1+$1,$8,$9,$2,$3,0*%
G04 Aperture macros list end*
%ADD10C,0.000000*%
%ADD11RoundRect,0.250000X-0.250000X-0.475000X0.250000X-0.475000X0.250000X0.475000X-0.250000X0.475000X0*%
%ADD12RoundRect,0.250000X0.250000X0.475000X-0.250000X0.475000X-0.250000X-0.475000X0.250000X-0.475000X0*%
%ADD13RoundRect,0.250000X-0.475000X0.250000X-0.475000X-0.250000X0.475000X-0.250000X0.475000X0.250000X0*%
%ADD14RoundRect,0.225000X0.375000X-0.225000X0.375000X0.225000X-0.375000X0.225000X-0.375000X-0.225000X0*%
%ADD15RoundRect,0.150000X0.512500X0.150000X-0.512500X0.150000X-0.512500X-0.150000X0.512500X-0.150000X0*%
%ADD16RoundRect,0.250000X0.450000X-0.262500X0.450000X0.262500X-0.450000X0.262500X-0.450000X-0.262500X0*%
%ADD17RoundRect,0.250000X-0.450000X0.262500X-0.450000X-0.262500X0.450000X-0.262500X0.450000X0.262500X0*%
%ADD18RoundRect,0.250000X-0.262500X-0.450000X0.262500X-0.450000X0.262500X0.450000X-0.262500X0.450000X0*%
%ADD19RoundRect,0.250000X0.262500X0.450000X-0.262500X0.450000X-0.262500X-0.450000X0.262500X-0.450000X0*%
%ADD20RoundRect,0.260000X-1.065000X-1.040000X1.065000X-1.040000X1.065000X1.040000X-1.065000X1.040000X0*%
%ADD21RoundRect,0.150000X-0.512500X-0.150000X0.512500X-0.150000X0.512500X0.150000X-0.512500X0.150000X0*%
%ADD22RoundRect,0.500000X0.875000X0.500000X-0.875000X0.500000X-0.875000X-0.500000X0.875000X-0.500000X0*%
%ADD23RoundRect,0.275000X-0.275000X0.975000X-0.275000X-0.975000X0.275000X-0.975000X0.275000X0.975000X0*%
%ADD24C,1.700000*%
%ADD25R,1.750000X4.500001*%
%ADD26R,0.804800X0.249200*%
G04 APERTURE END LIST*
D10*
%TO.C,U13*%
G36*
X341550269Y-32832236D02*
G01*
X340000269Y-32832236D01*
X340000269Y-31532235D01*
X341550269Y-31532235D01*
X341550269Y-32832236D01*
G37*
G36*
X341550269Y-31332235D02*
G01*
X340000269Y-31332235D01*
X340000269Y-30032235D01*
X341550269Y-30032235D01*
X341550269Y-31332235D01*
G37*
G36*
X341550269Y-29832235D02*
G01*
X340000269Y-29832235D01*
X340000269Y-28532234D01*
X341550269Y-28532234D01*
X341550269Y-29832235D01*
G37*
%TD*%
D11*
%TO.C,C3*%
X21700000Y-12500000D03*
X19800000Y-12500000D03*
%TD*%
D12*
%TO.C,C5*%
X7250000Y-12000000D03*
X9150000Y-12000000D03*
%TD*%
D11*
%TO.C,C6*%
X7200000Y-14500000D03*
X5300000Y-14500000D03*
%TD*%
D13*
%TO.C,C8*%
X17000000Y-12950000D03*
X17000000Y-11050000D03*
%TD*%
%TO.C,C11*%
X23750000Y-10950000D03*
X23750000Y-9050000D03*
%TD*%
D12*
%TO.C,C12*%
X337677669Y-32432235D03*
X335777669Y-32432235D03*
%TD*%
D11*
%TO.C,C13*%
X343872869Y-30932235D03*
X345772869Y-30932235D03*
%TD*%
D14*
%TO.C,D1*%
X7250000Y-24350000D03*
X7250000Y-27650000D03*
%TD*%
%TO.C,D2*%
X44870000Y-25450000D03*
X44870000Y-28750000D03*
%TD*%
%TO.C,D3*%
X63920000Y-25450000D03*
X63920000Y-28750000D03*
%TD*%
%TO.C,D4*%
X82970000Y-25450000D03*
X82970000Y-28750000D03*
%TD*%
%TO.C,D5*%
X102020000Y-25450000D03*
X102020000Y-28750000D03*
%TD*%
%TO.C,D6*%
X130595000Y-25450000D03*
X130595000Y-28750000D03*
%TD*%
%TO.C,D7*%
X149645000Y-25450000D03*
X149645000Y-28750000D03*
%TD*%
%TO.C,D8*%
X168695000Y-25450000D03*
X168695000Y-28750000D03*
%TD*%
%TO.C,D9*%
X187745000Y-25450000D03*
X187745000Y-28750000D03*
%TD*%
%TO.C,D10*%
X215367500Y-25450000D03*
X215367500Y-28750000D03*
%TD*%
%TO.C,D11*%
X234417500Y-25450000D03*
X234417500Y-28750000D03*
%TD*%
%TO.C,D12*%
X253467500Y-25450000D03*
X253467500Y-28750000D03*
%TD*%
%TO.C,D13*%
X272517500Y-25450000D03*
X272517500Y-28750000D03*
%TD*%
%TO.C,D14*%
X297282500Y-25450000D03*
X297282500Y-28750000D03*
%TD*%
%TO.C,D15*%
X8000000Y-49262500D03*
X8000000Y-52562500D03*
%TD*%
%TO.C,D16*%
X25820000Y-49262500D03*
X25820000Y-52562500D03*
%TD*%
%TO.C,D17*%
X44870000Y-49262500D03*
X44870000Y-52562500D03*
%TD*%
%TO.C,D18*%
X63920000Y-49262500D03*
X63920000Y-52562500D03*
%TD*%
%TO.C,D19*%
X82970000Y-49262500D03*
X82970000Y-52562500D03*
%TD*%
%TO.C,D20*%
X102020000Y-49262500D03*
X102020000Y-52562500D03*
%TD*%
%TO.C,D21*%
X121070000Y-49262500D03*
X121070000Y-52562500D03*
%TD*%
%TO.C,D22*%
X140120000Y-49262500D03*
X140120000Y-52562500D03*
%TD*%
%TO.C,D23*%
X159170000Y-49262500D03*
X159170000Y-52562500D03*
%TD*%
%TO.C,D24*%
X178220000Y-49262500D03*
X178220000Y-52562500D03*
%TD*%
%TO.C,D25*%
X197270000Y-49262500D03*
X197270000Y-52562500D03*
%TD*%
%TO.C,D26*%
X216320000Y-49262500D03*
X216320000Y-52562500D03*
%TD*%
%TO.C,D27*%
X235370000Y-49262500D03*
X235370000Y-52562500D03*
%TD*%
%TO.C,D28*%
X263945000Y-49262500D03*
X263945000Y-52562500D03*
%TD*%
%TO.C,D29*%
X297282500Y-49262500D03*
X297282500Y-52562500D03*
%TD*%
%TO.C,D30*%
X11532500Y-68312500D03*
X11532500Y-71612500D03*
%TD*%
%TO.C,D31*%
X35345000Y-68312500D03*
X35345000Y-71612500D03*
%TD*%
%TO.C,D32*%
X54395000Y-68312500D03*
X54395000Y-71612500D03*
%TD*%
%TO.C,D33*%
X73445000Y-68312500D03*
X73445000Y-71612500D03*
%TD*%
%TO.C,D34*%
X92495000Y-68312500D03*
X92495000Y-71612500D03*
%TD*%
%TO.C,D35*%
X111545000Y-68312500D03*
X111545000Y-71612500D03*
%TD*%
%TO.C,D36*%
X130595000Y-68312500D03*
X130595000Y-71612500D03*
%TD*%
%TO.C,D37*%
X149645000Y-68312500D03*
X149645000Y-71612500D03*
%TD*%
%TO.C,D38*%
X168695000Y-68312500D03*
X168695000Y-71612500D03*
%TD*%
%TO.C,D39*%
X187745000Y-68312500D03*
X187745000Y-71612500D03*
%TD*%
%TO.C,D40*%
X206795000Y-68312500D03*
X206795000Y-71612500D03*
%TD*%
%TO.C,D41*%
X225845000Y-68312500D03*
X225845000Y-71612500D03*
%TD*%
%TO.C,D42*%
X244895000Y-68312500D03*
X244895000Y-71612500D03*
%TD*%
%TO.C,D43*%
X268707500Y-68312500D03*
X268707500Y-71612500D03*
%TD*%
%TO.C,D44*%
X297282500Y-68312500D03*
X297282500Y-71612500D03*
%TD*%
%TO.C,D45*%
X13913750Y-87362500D03*
X13913750Y-90662500D03*
%TD*%
%TO.C,D46*%
X40107500Y-87362500D03*
X40107500Y-90662500D03*
%TD*%
%TO.C,D47*%
X59157500Y-87362500D03*
X59157500Y-90662500D03*
%TD*%
%TO.C,D48*%
X78207500Y-87362500D03*
X78207500Y-90662500D03*
%TD*%
%TO.C,D49*%
X97257500Y-87362500D03*
X97257500Y-90662500D03*
%TD*%
%TO.C,D50*%
X116307500Y-87362500D03*
X116307500Y-90662500D03*
%TD*%
%TO.C,D51*%
X135357500Y-87362500D03*
X135357500Y-90662500D03*
%TD*%
%TO.C,D52*%
X154407500Y-87362500D03*
X154407500Y-90662500D03*
%TD*%
%TO.C,D53*%
X173457500Y-87362500D03*
X173457500Y-90662500D03*
%TD*%
%TO.C,D54*%
X192507500Y-87362500D03*
X192507500Y-90662500D03*
%TD*%
%TO.C,D55*%
X211557500Y-87362500D03*
X211557500Y-90662500D03*
%TD*%
%TO.C,D56*%
X230607500Y-87362500D03*
X230607500Y-90662500D03*
%TD*%
%TO.C,D57*%
X261563750Y-87362500D03*
X261563750Y-90662500D03*
%TD*%
%TO.C,D58*%
X297282500Y-87362500D03*
X297282500Y-90662500D03*
%TD*%
%TO.C,D59*%
X18676250Y-106412500D03*
X18676250Y-109712500D03*
%TD*%
%TO.C,D60*%
X49632500Y-106412500D03*
X49632500Y-109712500D03*
%TD*%
%TO.C,D61*%
X68682500Y-106412500D03*
X68682500Y-109712500D03*
%TD*%
%TO.C,D62*%
X87732500Y-106412500D03*
X87732500Y-109712500D03*
%TD*%
%TO.C,D63*%
X106782500Y-106412500D03*
X106782500Y-109712500D03*
%TD*%
%TO.C,D64*%
X125832500Y-106412500D03*
X125832500Y-109712500D03*
%TD*%
%TO.C,D65*%
X144882500Y-106412500D03*
X144882500Y-109712500D03*
%TD*%
%TO.C,D66*%
X163932500Y-106412500D03*
X163932500Y-109712500D03*
%TD*%
%TO.C,D67*%
X182982500Y-106412500D03*
X182982500Y-109712500D03*
%TD*%
%TO.C,D68*%
X202032500Y-106412500D03*
X202032500Y-109712500D03*
%TD*%
%TO.C,D69*%
X221082500Y-106412500D03*
X221082500Y-109712500D03*
%TD*%
%TO.C,D70*%
X247276250Y-106412500D03*
X247276250Y-109712500D03*
%TD*%
%TO.C,D71*%
X278232500Y-111175000D03*
X278232500Y-114475000D03*
%TD*%
%TO.C,D72*%
X9000000Y-123350000D03*
X9000000Y-126650000D03*
%TD*%
%TO.C,D73*%
X25820000Y-125462500D03*
X25820000Y-128762500D03*
%TD*%
%TO.C,D74*%
X44870000Y-125462500D03*
X44870000Y-128762500D03*
%TD*%
%TO.C,D75*%
X63920000Y-125462500D03*
X63920000Y-128762500D03*
%TD*%
%TO.C,D76*%
X130595000Y-125462500D03*
X130595000Y-128762500D03*
%TD*%
%TO.C,D77*%
X197270000Y-125462500D03*
X197270000Y-128762500D03*
%TD*%
%TO.C,D78*%
X216320000Y-125462500D03*
X216320000Y-128762500D03*
%TD*%
%TO.C,D79*%
X235370000Y-125462500D03*
X235370000Y-128762500D03*
%TD*%
%TO.C,D80*%
X259182500Y-130225000D03*
X259182500Y-133525000D03*
%TD*%
%TO.C,D81*%
X278232500Y-130225000D03*
X278232500Y-133525000D03*
%TD*%
%TO.C,D82*%
X297282500Y-130225000D03*
X297282500Y-133525000D03*
%TD*%
D15*
%TO.C,D83*%
X10975000Y-33950000D03*
X13250000Y-34900000D03*
X13250000Y-33000000D03*
%TD*%
D14*
%TO.C,D84*%
X329030669Y-47959735D03*
X329030669Y-51259735D03*
%TD*%
%TO.C,D85*%
X347922669Y-47959735D03*
X347922669Y-51259735D03*
%TD*%
%TO.C,D86*%
X367130669Y-47881735D03*
X367130669Y-51181735D03*
%TD*%
%TO.C,D87*%
X385922669Y-47959735D03*
X385922669Y-51259735D03*
%TD*%
%TO.C,D88*%
X329030669Y-66959735D03*
X329030669Y-70259735D03*
%TD*%
%TO.C,D89*%
X347922669Y-66959735D03*
X347922669Y-70259735D03*
%TD*%
%TO.C,D90*%
X367130669Y-66959735D03*
X367130669Y-70259735D03*
%TD*%
%TO.C,D91*%
X386172669Y-67059735D03*
X386172669Y-70359735D03*
%TD*%
%TO.C,D92*%
X328922669Y-86059735D03*
X328922669Y-89359735D03*
%TD*%
%TO.C,D93*%
X347922669Y-86059735D03*
X347922669Y-89359735D03*
%TD*%
%TO.C,D94*%
X366922669Y-86059735D03*
X366922669Y-89359735D03*
%TD*%
%TO.C,D95*%
X386172669Y-85959735D03*
X386172669Y-89259735D03*
%TD*%
%TO.C,D96*%
X330227669Y-104332235D03*
X330227669Y-107632235D03*
%TD*%
%TO.C,D97*%
X347922669Y-105059735D03*
X347922669Y-108359735D03*
%TD*%
%TO.C,D98*%
X367172669Y-105059735D03*
X367172669Y-108359735D03*
%TD*%
%TO.C,D99*%
X386172669Y-105209735D03*
X386172669Y-108509735D03*
%TD*%
%TO.C,D100*%
X330727669Y-123332235D03*
X330727669Y-126632235D03*
%TD*%
%TO.C,D101*%
X347922669Y-124209735D03*
X347922669Y-127509735D03*
%TD*%
%TO.C,D102*%
X367172669Y-124209735D03*
X367172669Y-127509735D03*
%TD*%
%TO.C,D103*%
X386172669Y-124209735D03*
X386172669Y-127509735D03*
%TD*%
D16*
%TO.C,R1*%
X45250000Y-6087500D03*
X45250000Y-7912500D03*
%TD*%
%TO.C,R2*%
X43250000Y-6087500D03*
X43250000Y-7912500D03*
%TD*%
D17*
%TO.C,R5*%
X63964881Y-18412806D03*
X63964881Y-16587806D03*
%TD*%
D16*
%TO.C,R8*%
X62003046Y-16587500D03*
X62003046Y-18412500D03*
%TD*%
D17*
%TO.C,R9*%
X6750000Y-31662500D03*
X6750000Y-29837500D03*
%TD*%
%TO.C,R10*%
X8750000Y-31662500D03*
X8750000Y-29837500D03*
%TD*%
D18*
%TO.C,R11*%
X67662500Y-6500000D03*
X65837500Y-6500000D03*
%TD*%
D19*
%TO.C,R20*%
X19837500Y-10000000D03*
X21662500Y-10000000D03*
%TD*%
%TO.C,R26*%
X337640169Y-28482235D03*
X335815169Y-28482235D03*
%TD*%
D20*
%TO.C,SW1*%
X21095000Y-17850000D03*
X9605000Y-15650000D03*
%TD*%
%TO.C,SW2*%
X59195000Y-17850000D03*
X47705000Y-15650000D03*
%TD*%
%TO.C,SW3*%
X78245000Y-17850000D03*
X66755000Y-15650000D03*
%TD*%
%TO.C,SW4*%
X97295000Y-17850000D03*
X85805000Y-15650000D03*
%TD*%
%TO.C,SW5*%
X116345000Y-17850000D03*
X104855000Y-15650000D03*
%TD*%
%TO.C,SW6*%
X144920000Y-17850000D03*
X133430000Y-15650000D03*
%TD*%
%TO.C,SW7*%
X163970000Y-17850000D03*
X152480000Y-15650000D03*
%TD*%
%TO.C,SW8*%
X183020000Y-17850000D03*
X171530000Y-15650000D03*
%TD*%
%TO.C,SW9*%
X202070000Y-17850000D03*
X190580000Y-15650000D03*
%TD*%
%TO.C,SW10*%
X229692500Y-17850000D03*
X218202500Y-15650000D03*
%TD*%
%TO.C,SW11*%
X248742500Y-17850000D03*
X237252500Y-15650000D03*
%TD*%
%TO.C,SW12*%
X267792500Y-17850000D03*
X256302500Y-15650000D03*
%TD*%
%TO.C,SW13*%
X286842500Y-17850000D03*
X275352500Y-15650000D03*
%TD*%
%TO.C,SW14*%
X311607500Y-17850000D03*
X300117500Y-15650000D03*
%TD*%
%TO.C,SW15*%
X21095000Y-41662500D03*
X9605000Y-39462500D03*
%TD*%
%TO.C,SW16*%
X40145000Y-41662500D03*
X28655000Y-39462500D03*
%TD*%
%TO.C,SW17*%
X59195000Y-41662500D03*
X47705000Y-39462500D03*
%TD*%
%TO.C,SW18*%
X78245000Y-41662500D03*
X66755000Y-39462500D03*
%TD*%
%TO.C,SW19*%
X97295000Y-41662500D03*
X85805000Y-39462500D03*
%TD*%
%TO.C,SW20*%
X116345000Y-41662500D03*
X104855000Y-39462500D03*
%TD*%
%TO.C,SW21*%
X135395000Y-41662500D03*
X123905000Y-39462500D03*
%TD*%
%TO.C,SW22*%
X154445000Y-41662500D03*
X142955000Y-39462500D03*
%TD*%
%TO.C,SW23*%
X173495000Y-41662500D03*
X162005000Y-39462500D03*
%TD*%
%TO.C,SW24*%
X192545000Y-41662500D03*
X181055000Y-39462500D03*
%TD*%
%TO.C,SW25*%
X211595000Y-41662500D03*
X200105000Y-39462500D03*
%TD*%
%TO.C,SW26*%
X230645000Y-41662500D03*
X219155000Y-39462500D03*
%TD*%
%TO.C,SW27*%
X249695000Y-41662500D03*
X238205000Y-39462500D03*
%TD*%
%TO.C,SW28*%
X278270000Y-41662500D03*
X266780000Y-39462500D03*
%TD*%
%TO.C,SW29*%
X311607500Y-41662500D03*
X300117500Y-39462500D03*
%TD*%
%TO.C,SW30*%
X25857500Y-60712500D03*
X14367500Y-58512500D03*
%TD*%
%TO.C,SW31*%
X49670000Y-60712500D03*
X38180000Y-58512500D03*
%TD*%
%TO.C,SW32*%
X68720000Y-60712500D03*
X57230000Y-58512500D03*
%TD*%
%TO.C,SW33*%
X87770000Y-60712500D03*
X76280000Y-58512500D03*
%TD*%
%TO.C,SW34*%
X106820000Y-60712500D03*
X95330000Y-58512500D03*
%TD*%
%TO.C,SW35*%
X125870000Y-60712500D03*
X114380000Y-58512500D03*
%TD*%
%TO.C,SW36*%
X144920000Y-60712500D03*
X133430000Y-58512500D03*
%TD*%
%TO.C,SW37*%
X163970000Y-60712500D03*
X152480000Y-58512500D03*
%TD*%
%TO.C,SW38*%
X183020000Y-60712500D03*
X171530000Y-58512500D03*
%TD*%
%TO.C,SW39*%
X202070000Y-60712500D03*
X190580000Y-58512500D03*
%TD*%
%TO.C,SW40*%
X221120000Y-60712500D03*
X209630000Y-58512500D03*
%TD*%
%TO.C,SW41*%
X240170000Y-60712500D03*
X228680000Y-58512500D03*
%TD*%
%TO.C,SW42*%
X259220000Y-60712500D03*
X247730000Y-58512500D03*
%TD*%
%TO.C,SW43*%
X283032500Y-60712500D03*
X271542500Y-58512500D03*
%TD*%
%TO.C,SW44*%
X311607500Y-60712500D03*
X300117500Y-58512500D03*
%TD*%
%TO.C,SW45*%
X28238750Y-79762500D03*
X16748750Y-77562500D03*
%TD*%
%TO.C,SW46*%
X54432500Y-79762500D03*
X42942500Y-77562500D03*
%TD*%
%TO.C,SW47*%
X73482500Y-79762500D03*
X61992500Y-77562500D03*
%TD*%
%TO.C,SW48*%
X92532500Y-79762500D03*
X81042500Y-77562500D03*
%TD*%
%TO.C,SW49*%
X111582500Y-79762500D03*
X100092500Y-77562500D03*
%TD*%
%TO.C,SW50*%
X130632500Y-79762500D03*
X119142500Y-77562500D03*
%TD*%
%TO.C,SW51*%
X149682500Y-79762500D03*
X138192500Y-77562500D03*
%TD*%
%TO.C,SW52*%
X168732500Y-79762500D03*
X157242500Y-77562500D03*
%TD*%
%TO.C,SW53*%
X187782500Y-79762500D03*
X176292500Y-77562500D03*
%TD*%
%TO.C,SW54*%
X206832500Y-79762500D03*
X195342500Y-77562500D03*
%TD*%
%TO.C,SW55*%
X225882500Y-79762500D03*
X214392500Y-77562500D03*
%TD*%
%TO.C,SW56*%
X244932500Y-79762500D03*
X233442500Y-77562500D03*
%TD*%
%TO.C,SW57*%
X275888750Y-79762500D03*
X264398750Y-77562500D03*
%TD*%
%TO.C,SW58*%
X311607500Y-79762500D03*
X300117500Y-77562500D03*
%TD*%
%TO.C,SW59*%
X33001250Y-98812500D03*
X21511250Y-96612500D03*
%TD*%
%TO.C,SW60*%
X63957500Y-98812500D03*
X52467500Y-96612500D03*
%TD*%
%TO.C,SW61*%
X83007500Y-98812500D03*
X71517500Y-96612500D03*
%TD*%
%TO.C,SW62*%
X102057500Y-98812500D03*
X90567500Y-96612500D03*
%TD*%
%TO.C,SW63*%
X121107500Y-98812500D03*
X109617500Y-96612500D03*
%TD*%
%TO.C,SW64*%
X140157500Y-98812500D03*
X128667500Y-96612500D03*
%TD*%
%TO.C,SW65*%
X159207500Y-98812500D03*
X147717500Y-96612500D03*
%TD*%
%TO.C,SW66*%
X178257500Y-98812500D03*
X166767500Y-96612500D03*
%TD*%
%TO.C,SW67*%
X197307500Y-98812500D03*
X185817500Y-96612500D03*
%TD*%
%TO.C,SW68*%
X216357500Y-98812500D03*
X204867500Y-96612500D03*
%TD*%
%TO.C,SW69*%
X235407500Y-98812500D03*
X223917500Y-96612500D03*
%TD*%
%TO.C,SW70*%
X261601250Y-98812500D03*
X250111250Y-96612500D03*
%TD*%
%TO.C,SW71*%
X292557500Y-103575000D03*
X281067500Y-101375000D03*
%TD*%
%TO.C,SW72*%
X21095000Y-117862500D03*
X9605000Y-115662500D03*
%TD*%
%TO.C,SW73*%
X40145000Y-117862500D03*
X28655000Y-115662500D03*
%TD*%
%TO.C,SW74*%
X59195000Y-117862500D03*
X47705000Y-115662500D03*
%TD*%
%TO.C,SW75*%
X78245000Y-117862500D03*
X66755000Y-115662500D03*
%TD*%
%TO.C,SW76*%
X144920000Y-117862500D03*
X133430000Y-115662500D03*
%TD*%
%TO.C,SW77*%
X211595000Y-117862500D03*
X200105000Y-115662500D03*
%TD*%
%TO.C,SW78*%
X230645000Y-117862500D03*
X219155000Y-115662500D03*
%TD*%
%TO.C,SW79*%
X249695000Y-117862500D03*
X238205000Y-115662500D03*
%TD*%
%TO.C,SW80*%
X273507500Y-122625000D03*
X262017500Y-120425000D03*
%TD*%
%TO.C,SW81*%
X292557500Y-122625000D03*
X281067500Y-120425000D03*
%TD*%
%TO.C,SW82*%
X311607500Y-122625000D03*
X300117500Y-120425000D03*
%TD*%
%TO.C,SW83*%
X343117669Y-41209735D03*
X331627669Y-39009735D03*
%TD*%
%TO.C,SW84*%
X362167669Y-41209735D03*
X350677669Y-39009735D03*
%TD*%
%TO.C,SW85*%
X381217669Y-41209735D03*
X369727669Y-39009735D03*
%TD*%
%TO.C,SW86*%
X400267669Y-41209735D03*
X388777669Y-39009735D03*
%TD*%
%TO.C,SW87*%
X343117669Y-60259735D03*
X331627669Y-58059735D03*
%TD*%
%TO.C,SW88*%
X362167669Y-60259735D03*
X350677669Y-58059735D03*
%TD*%
%TO.C,SW89*%
X381217669Y-60259735D03*
X369727669Y-58059735D03*
%TD*%
%TO.C,SW90*%
X400267669Y-60259735D03*
X388777669Y-58059735D03*
%TD*%
%TO.C,SW91*%
X343117669Y-79309735D03*
X331627669Y-77109735D03*
%TD*%
%TO.C,SW92*%
X362167669Y-79309735D03*
X350677669Y-77109735D03*
%TD*%
%TO.C,SW93*%
X381217669Y-79309735D03*
X369727669Y-77109735D03*
%TD*%
%TO.C,SW94*%
X400267669Y-79309735D03*
X388777669Y-77109735D03*
%TD*%
%TO.C,SW95*%
X343117669Y-98359735D03*
X331627669Y-96159735D03*
%TD*%
%TO.C,SW96*%
X362167669Y-98359735D03*
X350677669Y-96159735D03*
%TD*%
%TO.C,SW97*%
X369727669Y-96159735D03*
X381217669Y-98359735D03*
%TD*%
%TO.C,SW98*%
X400267669Y-98359735D03*
X388777669Y-96159735D03*
%TD*%
%TO.C,SW99*%
X343117669Y-117409735D03*
X331627669Y-115209735D03*
%TD*%
%TO.C,SW100*%
X362167669Y-117409735D03*
X350677669Y-115209735D03*
%TD*%
%TO.C,SW101*%
X381217669Y-117409735D03*
X369727669Y-115209735D03*
%TD*%
%TO.C,SW102*%
X400267669Y-117409735D03*
X388777669Y-115209735D03*
%TD*%
D15*
%TO.C,U4*%
X10862500Y-9050000D03*
X10862500Y-10950000D03*
X13137500Y-10950000D03*
X13137500Y-10000000D03*
X13137500Y-9050000D03*
%TD*%
D21*
%TO.C,U5*%
X54887500Y-9950000D03*
X54887500Y-8050000D03*
X52612500Y-8050000D03*
X52612500Y-9000000D03*
X52612500Y-9950000D03*
%TD*%
D22*
%TO.C,U6*%
X342223169Y-9287235D03*
X342223169Y-11827235D03*
X342223169Y-14367235D03*
X342223169Y-16907235D03*
X342223169Y-19447235D03*
X342223169Y-21987235D03*
X342223169Y-24527235D03*
X326058169Y-24527235D03*
X326058169Y-21987235D03*
X326058169Y-19447235D03*
X326058169Y-16907235D03*
X326058169Y-14367235D03*
X326058169Y-11827235D03*
X326058169Y-9287235D03*
D23*
X330358169Y-26144135D03*
X328453169Y-26144135D03*
D24*
X335438169Y-8338735D03*
X332898169Y-8338735D03*
X335438169Y-10878735D03*
X332898169Y-10878735D03*
%TD*%
D25*
%TO.C,U13*%
X340775269Y-30682235D03*
D26*
X339322869Y-28932236D03*
X339322869Y-29432235D03*
X339322869Y-29932237D03*
X339322869Y-30432235D03*
X339322869Y-30932235D03*
X339322869Y-31432236D03*
X339322869Y-31932235D03*
X339322869Y-32432237D03*
X342227669Y-32432234D03*
X342227669Y-31932235D03*
X342227669Y-31432233D03*
X342227669Y-30932235D03*
X342227669Y-30432235D03*
X342227669Y-29932234D03*
X342227669Y-29432235D03*
X342227669Y-28932233D03*
%TD*%
M02*
