%TF.GenerationSoftware,KiCad,Pcbnew,9.0.3*%
%TF.CreationDate,2026-01-06T15:55:44+03:00*%
%TF.ProjectId,Keyboard,4b657962-6f61-4726-942e-6b696361645f,rev?*%
%TF.SameCoordinates,Original*%
%TF.FileFunction,NonPlated,1,2,NPTH,Drill*%
%TF.FilePolarity,Positive*%
%FSLAX46Y46*%
G04 Gerber Fmt 4.6, Leading zero omitted, Abs format (unit mm)*
G04 Created by KiCad (PCBNEW 9.0.3) date 2026-01-06 15:55:44*
%MOMM*%
%LPD*%
G01*
G04 APERTURE LIST*
%TA.AperFunction,ComponentDrill*%
%ADD10C,0.500000*%
%TD*%
%TA.AperFunction,ComponentDrill*%
%ADD11C,0.650000*%
%TD*%
%TA.AperFunction,ComponentDrill*%
%ADD12C,1.700000*%
%TD*%
%TA.AperFunction,ComponentDrill*%
%ADD13C,2.200000*%
%TD*%
%TA.AperFunction,ComponentDrill*%
%ADD14C,3.400000*%
%TD*%
G04 APERTURE END LIST*
D10*
%TO.C,REF\u002A\u002A*%
X315699999Y-79649997D03*
X315699999Y-80389997D03*
X315699999Y-81129997D03*
X315699999Y-81869997D03*
X315699999Y-82609997D03*
X315699999Y-83349997D03*
X315700000Y-52150000D03*
X315700000Y-52890000D03*
X315700000Y-53630000D03*
X315700000Y-54370000D03*
X315700000Y-55110000D03*
X315700000Y-55850000D03*
X321549999Y-79649997D03*
X321549999Y-80389997D03*
X321549999Y-81129997D03*
X321549999Y-81869997D03*
X321549999Y-82609997D03*
X321549999Y-83349997D03*
X321550000Y-52150000D03*
X321550000Y-52890000D03*
X321550000Y-53630000D03*
X321550000Y-54370000D03*
X321550000Y-55110000D03*
X321550000Y-55850000D03*
D11*
%TO.C,J1*%
X41360000Y-5000000D03*
X47140000Y-5000000D03*
D12*
%TO.C,SW1*%
X7350000Y-21600000D03*
%TO.C,SW15*%
X7350000Y-45412500D03*
%TO.C,SW72*%
X7350000Y-121612500D03*
%TO.C,SW30*%
X12112500Y-64462500D03*
%TO.C,SW45*%
X14493750Y-83512500D03*
%TO.C,SW1*%
X18350000Y-21600000D03*
%TO.C,SW15*%
X18350000Y-45412500D03*
%TO.C,SW72*%
X18350000Y-121612500D03*
%TO.C,SW59*%
X19256250Y-102562500D03*
%TO.C,SW30*%
X23112500Y-64462500D03*
%TO.C,SW45*%
X25493750Y-83512500D03*
%TO.C,SW16*%
X26400000Y-45412500D03*
%TO.C,SW73*%
X26400000Y-121612500D03*
%TO.C,SW59*%
X30256250Y-102562500D03*
%TO.C,SW31*%
X35925000Y-64462500D03*
%TO.C,SW16*%
X37400000Y-45412500D03*
%TO.C,SW73*%
X37400000Y-121612500D03*
%TO.C,SW46*%
X40687500Y-83512500D03*
%TO.C,SW2*%
X45450000Y-21600000D03*
%TO.C,SW17*%
X45450000Y-45412500D03*
%TO.C,SW74*%
X45450000Y-121612500D03*
%TO.C,SW31*%
X46925000Y-64462500D03*
%TO.C,SW60*%
X50212500Y-102562500D03*
%TO.C,SW46*%
X51687500Y-83512500D03*
%TO.C,SW32*%
X54975000Y-64462500D03*
%TO.C,SW2*%
X56450000Y-21600000D03*
%TO.C,SW17*%
X56450000Y-45412500D03*
%TO.C,SW74*%
X56450000Y-121612500D03*
%TO.C,SW47*%
X59737500Y-83512500D03*
%TO.C,SW60*%
X61212500Y-102562500D03*
%TO.C,SW3*%
X64500000Y-21600000D03*
%TO.C,SW18*%
X64500000Y-45412500D03*
%TO.C,SW75*%
X64500000Y-121612500D03*
%TO.C,SW32*%
X65975000Y-64462500D03*
%TO.C,SW61*%
X69262500Y-102562500D03*
%TO.C,SW47*%
X70737500Y-83512500D03*
%TO.C,SW33*%
X74025000Y-64462500D03*
%TO.C,SW3*%
X75500000Y-21600000D03*
%TO.C,SW18*%
X75500000Y-45412500D03*
%TO.C,SW75*%
X75500000Y-121612500D03*
%TO.C,SW48*%
X78787500Y-83512500D03*
%TO.C,SW61*%
X80262500Y-102562500D03*
%TO.C,SW4*%
X83550000Y-21600000D03*
%TO.C,SW19*%
X83550000Y-45412500D03*
%TO.C,SW33*%
X85025000Y-64462500D03*
%TO.C,SW62*%
X88312500Y-102562500D03*
%TO.C,SW48*%
X89787500Y-83512500D03*
%TO.C,SW34*%
X93075000Y-64462500D03*
%TO.C,SW4*%
X94550000Y-21600000D03*
%TO.C,SW19*%
X94550000Y-45412500D03*
%TO.C,SW49*%
X97837500Y-83512500D03*
%TO.C,SW62*%
X99312500Y-102562500D03*
%TO.C,SW5*%
X102600000Y-21600000D03*
%TO.C,SW20*%
X102600000Y-45412500D03*
%TO.C,SW34*%
X104075000Y-64462500D03*
%TO.C,SW63*%
X107362500Y-102562500D03*
%TO.C,SW49*%
X108837500Y-83512500D03*
%TO.C,SW35*%
X112125000Y-64462500D03*
%TO.C,SW5*%
X113600000Y-21600000D03*
%TO.C,SW20*%
X113600000Y-45412500D03*
%TO.C,SW50*%
X116887500Y-83512500D03*
%TO.C,SW63*%
X118362500Y-102562500D03*
%TO.C,SW21*%
X121650000Y-45412500D03*
%TO.C,SW35*%
X123125000Y-64462500D03*
%TO.C,SW64*%
X126412500Y-102562500D03*
%TO.C,SW50*%
X127887500Y-83512500D03*
%TO.C,SW6*%
X131175000Y-21600000D03*
%TO.C,SW36*%
X131175000Y-64462500D03*
%TO.C,SW76*%
X131175000Y-121612500D03*
%TO.C,SW21*%
X132650000Y-45412500D03*
%TO.C,SW51*%
X135937500Y-83512500D03*
%TO.C,SW64*%
X137412500Y-102562500D03*
%TO.C,SW22*%
X140700000Y-45412500D03*
%TO.C,SW6*%
X142175000Y-21600000D03*
%TO.C,SW36*%
X142175000Y-64462500D03*
%TO.C,SW76*%
X142175000Y-121612500D03*
%TO.C,SW65*%
X145462500Y-102562500D03*
%TO.C,SW51*%
X146937500Y-83512500D03*
%TO.C,SW7*%
X150225000Y-21600000D03*
%TO.C,SW37*%
X150225000Y-64462500D03*
%TO.C,SW22*%
X151700000Y-45412500D03*
%TO.C,SW52*%
X154987500Y-83512500D03*
%TO.C,SW65*%
X156462500Y-102562500D03*
%TO.C,SW23*%
X159750000Y-45412500D03*
%TO.C,SW7*%
X161225000Y-21600000D03*
%TO.C,SW37*%
X161225000Y-64462500D03*
%TO.C,SW66*%
X164512500Y-102562500D03*
%TO.C,SW52*%
X165987500Y-83512500D03*
%TO.C,SW8*%
X169275000Y-21600000D03*
%TO.C,SW38*%
X169275000Y-64462500D03*
%TO.C,SW23*%
X170750000Y-45412500D03*
%TO.C,SW53*%
X174037500Y-83512500D03*
%TO.C,SW66*%
X175512500Y-102562500D03*
%TO.C,SW24*%
X178800000Y-45412500D03*
%TO.C,SW8*%
X180275000Y-21600000D03*
%TO.C,SW38*%
X180275000Y-64462500D03*
%TO.C,SW67*%
X183562500Y-102562500D03*
%TO.C,SW53*%
X185037500Y-83512500D03*
%TO.C,SW9*%
X188325000Y-21600000D03*
%TO.C,SW39*%
X188325000Y-64462500D03*
%TO.C,SW24*%
X189800000Y-45412500D03*
%TO.C,SW54*%
X193087500Y-83512500D03*
%TO.C,SW67*%
X194562500Y-102562500D03*
%TO.C,SW25*%
X197850000Y-45412500D03*
%TO.C,SW77*%
X197850000Y-121612500D03*
%TO.C,SW9*%
X199325000Y-21600000D03*
%TO.C,SW39*%
X199325000Y-64462500D03*
%TO.C,SW68*%
X202612500Y-102562500D03*
%TO.C,SW54*%
X204087500Y-83512500D03*
%TO.C,SW40*%
X207375000Y-64462500D03*
%TO.C,SW25*%
X208850000Y-45412500D03*
%TO.C,SW77*%
X208850000Y-121612500D03*
%TO.C,SW55*%
X212137500Y-83512500D03*
%TO.C,SW68*%
X213612500Y-102562500D03*
%TO.C,SW10*%
X215947500Y-21600000D03*
%TO.C,SW26*%
X216900000Y-45412500D03*
%TO.C,SW78*%
X216900000Y-121612500D03*
%TO.C,SW40*%
X218375000Y-64462500D03*
%TO.C,SW69*%
X221662500Y-102562500D03*
%TO.C,SW55*%
X223137500Y-83512500D03*
%TO.C,SW41*%
X226425000Y-64462500D03*
%TO.C,SW10*%
X226947500Y-21600000D03*
%TO.C,SW26*%
X227900000Y-45412500D03*
%TO.C,SW78*%
X227900000Y-121612500D03*
%TO.C,SW56*%
X231187500Y-83512500D03*
%TO.C,SW69*%
X232662500Y-102562500D03*
%TO.C,SW11*%
X234997500Y-21600000D03*
%TO.C,SW27*%
X235950000Y-45412500D03*
%TO.C,SW79*%
X235950000Y-121612500D03*
%TO.C,SW41*%
X237425000Y-64462500D03*
%TO.C,SW56*%
X242187500Y-83512500D03*
%TO.C,SW42*%
X245475000Y-64462500D03*
%TO.C,SW11*%
X245997500Y-21600000D03*
%TO.C,SW27*%
X246950000Y-45412500D03*
%TO.C,SW79*%
X246950000Y-121612500D03*
%TO.C,SW70*%
X247856250Y-102562500D03*
%TO.C,SW12*%
X254047500Y-21600000D03*
%TO.C,SW42*%
X256475000Y-64462500D03*
%TO.C,SW70*%
X258856250Y-102562500D03*
%TO.C,SW80*%
X259762500Y-126375000D03*
%TO.C,SW57*%
X262143750Y-83512500D03*
%TO.C,SW28*%
X264525000Y-45412500D03*
%TO.C,SW12*%
X265047500Y-21600000D03*
%TO.C,SW43*%
X269287500Y-64462500D03*
%TO.C,SW80*%
X270762500Y-126375000D03*
%TO.C,SW13*%
X273097500Y-21600000D03*
%TO.C,SW57*%
X273143750Y-83512500D03*
%TO.C,SW28*%
X275525000Y-45412500D03*
%TO.C,SW71*%
X278812500Y-107325000D03*
%TO.C,SW81*%
X278812500Y-126375000D03*
%TO.C,SW43*%
X280287500Y-64462500D03*
%TO.C,SW13*%
X284097500Y-21600000D03*
%TO.C,SW71*%
X289812500Y-107325000D03*
%TO.C,SW81*%
X289812500Y-126375000D03*
%TO.C,SW14*%
X297862500Y-21600000D03*
%TO.C,SW29*%
X297862500Y-45412500D03*
%TO.C,SW44*%
X297862500Y-64462500D03*
%TO.C,SW58*%
X297862500Y-83512500D03*
%TO.C,SW82*%
X297862500Y-126375000D03*
%TO.C,SW14*%
X308862500Y-21600000D03*
%TO.C,SW29*%
X308862500Y-45412500D03*
%TO.C,SW44*%
X308862500Y-64462500D03*
%TO.C,SW58*%
X308862500Y-83512500D03*
%TO.C,SW82*%
X308862500Y-126375000D03*
%TO.C,SW83*%
X329372669Y-44959735D03*
%TO.C,SW87*%
X329372669Y-64009735D03*
%TO.C,SW91*%
X329372669Y-83059735D03*
%TO.C,SW95*%
X329372669Y-102109735D03*
%TO.C,SW99*%
X329372669Y-121159735D03*
%TO.C,SW83*%
X340372669Y-44959735D03*
%TO.C,SW87*%
X340372669Y-64009735D03*
%TO.C,SW91*%
X340372669Y-83059735D03*
%TO.C,SW95*%
X340372669Y-102109735D03*
%TO.C,SW99*%
X340372669Y-121159735D03*
%TO.C,SW84*%
X348422669Y-44959735D03*
%TO.C,SW88*%
X348422669Y-64009735D03*
%TO.C,SW92*%
X348422669Y-83059735D03*
%TO.C,SW96*%
X348422669Y-102109735D03*
%TO.C,SW100*%
X348422669Y-121159735D03*
%TO.C,SW84*%
X359422669Y-44959735D03*
%TO.C,SW88*%
X359422669Y-64009735D03*
%TO.C,SW92*%
X359422669Y-83059735D03*
%TO.C,SW96*%
X359422669Y-102109735D03*
%TO.C,SW100*%
X359422669Y-121159735D03*
%TO.C,SW85*%
X367472669Y-44959735D03*
%TO.C,SW89*%
X367472669Y-64009735D03*
%TO.C,SW93*%
X367472669Y-83059735D03*
%TO.C,SW97*%
X367472669Y-102109735D03*
%TO.C,SW101*%
X367472669Y-121159735D03*
%TO.C,SW85*%
X378472669Y-44959735D03*
%TO.C,SW89*%
X378472669Y-64009735D03*
%TO.C,SW93*%
X378472669Y-83059735D03*
%TO.C,SW97*%
X378472669Y-102109735D03*
%TO.C,SW101*%
X378472669Y-121159735D03*
%TO.C,SW86*%
X386522669Y-44959735D03*
%TO.C,SW90*%
X386522669Y-64009735D03*
%TO.C,SW94*%
X386522669Y-83059735D03*
%TO.C,SW98*%
X386522669Y-102109735D03*
%TO.C,SW102*%
X386522669Y-121159735D03*
%TO.C,SW86*%
X397522669Y-44959735D03*
%TO.C,SW90*%
X397522669Y-64009735D03*
%TO.C,SW94*%
X397522669Y-83059735D03*
%TO.C,SW98*%
X397522669Y-102109735D03*
%TO.C,SW102*%
X397522669Y-121159735D03*
D13*
%TO.C,H11*%
X4000000Y-4000000D03*
%TO.C,H12*%
X4000000Y-133000000D03*
%TO.C,H18*%
X105000000Y-4000000D03*
%TO.C,H16*%
X105000000Y-133000000D03*
%TO.C,H17*%
X193000000Y-4000000D03*
%TO.C,H15*%
X193000000Y-133000000D03*
%TO.C,H14*%
X313000000Y-4000000D03*
%TO.C,H13*%
X313000000Y-133000000D03*
D14*
%TO.C,SW1*%
X12850000Y-21600000D03*
%TO.C,SW15*%
X12850000Y-45412500D03*
%TO.C,SW72*%
X12850000Y-121612500D03*
%TO.C,SW30*%
X17612500Y-64462500D03*
%TO.C,SW45*%
X19993750Y-83512500D03*
%TO.C,SW59*%
X24756250Y-102562500D03*
%TO.C,SW16*%
X31900000Y-45412500D03*
%TO.C,SW73*%
X31900000Y-121612500D03*
%TO.C,SW31*%
X41425000Y-64462500D03*
%TO.C,SW46*%
X46187500Y-83512500D03*
%TO.C,SW2*%
X50950000Y-21600000D03*
%TO.C,SW17*%
X50950000Y-45412500D03*
%TO.C,SW74*%
X50950000Y-121612500D03*
%TO.C,SW60*%
X55712500Y-102562500D03*
%TO.C,SW32*%
X60475000Y-64462500D03*
%TO.C,SW47*%
X65237500Y-83512500D03*
%TO.C,SW3*%
X70000000Y-21600000D03*
%TO.C,SW18*%
X70000000Y-45412500D03*
%TO.C,SW75*%
X70000000Y-121612500D03*
%TO.C,SW61*%
X74762500Y-102562500D03*
%TO.C,SW33*%
X79525000Y-64462500D03*
%TO.C,SW48*%
X84287500Y-83512500D03*
%TO.C,SW4*%
X89050000Y-21600000D03*
%TO.C,SW19*%
X89050000Y-45412500D03*
%TO.C,SW62*%
X93812500Y-102562500D03*
%TO.C,SW34*%
X98575000Y-64462500D03*
%TO.C,SW49*%
X103337500Y-83512500D03*
%TO.C,SW5*%
X108100000Y-21600000D03*
%TO.C,SW20*%
X108100000Y-45412500D03*
%TO.C,SW63*%
X112862500Y-102562500D03*
%TO.C,SW35*%
X117625000Y-64462500D03*
%TO.C,SW50*%
X122387500Y-83512500D03*
%TO.C,SW21*%
X127150000Y-45412500D03*
%TO.C,SW64*%
X131912500Y-102562500D03*
%TO.C,SW6*%
X136675000Y-21600000D03*
%TO.C,SW36*%
X136675000Y-64462500D03*
%TO.C,SW76*%
X136675000Y-121612500D03*
%TO.C,SW51*%
X141437500Y-83512500D03*
%TO.C,SW22*%
X146200000Y-45412500D03*
%TO.C,SW65*%
X150962500Y-102562500D03*
%TO.C,SW7*%
X155725000Y-21600000D03*
%TO.C,SW37*%
X155725000Y-64462500D03*
%TO.C,SW52*%
X160487500Y-83512500D03*
%TO.C,SW23*%
X165250000Y-45412500D03*
%TO.C,SW66*%
X170012500Y-102562500D03*
%TO.C,SW8*%
X174775000Y-21600000D03*
%TO.C,SW38*%
X174775000Y-64462500D03*
%TO.C,SW53*%
X179537500Y-83512500D03*
%TO.C,SW24*%
X184300000Y-45412500D03*
%TO.C,SW67*%
X189062500Y-102562500D03*
%TO.C,SW9*%
X193825000Y-21600000D03*
%TO.C,SW39*%
X193825000Y-64462500D03*
%TO.C,SW54*%
X198587500Y-83512500D03*
%TO.C,SW25*%
X203350000Y-45412500D03*
%TO.C,SW77*%
X203350000Y-121612500D03*
%TO.C,SW68*%
X208112500Y-102562500D03*
%TO.C,SW40*%
X212875000Y-64462500D03*
%TO.C,SW55*%
X217637500Y-83512500D03*
%TO.C,SW10*%
X221447500Y-21600000D03*
%TO.C,SW26*%
X222400000Y-45412500D03*
%TO.C,SW78*%
X222400000Y-121612500D03*
%TO.C,SW69*%
X227162500Y-102562500D03*
%TO.C,SW41*%
X231925000Y-64462500D03*
%TO.C,SW56*%
X236687500Y-83512500D03*
%TO.C,SW11*%
X240497500Y-21600000D03*
%TO.C,SW27*%
X241450000Y-45412500D03*
%TO.C,SW79*%
X241450000Y-121612500D03*
%TO.C,SW42*%
X250975000Y-64462500D03*
%TO.C,SW70*%
X253356250Y-102562500D03*
%TO.C,SW12*%
X259547500Y-21600000D03*
%TO.C,SW80*%
X265262500Y-126375000D03*
%TO.C,SW57*%
X267643750Y-83512500D03*
%TO.C,SW28*%
X270025000Y-45412500D03*
%TO.C,SW43*%
X274787500Y-64462500D03*
%TO.C,SW13*%
X278597500Y-21600000D03*
%TO.C,SW71*%
X284312500Y-107325000D03*
%TO.C,SW81*%
X284312500Y-126375000D03*
%TO.C,SW14*%
X303362500Y-21600000D03*
%TO.C,SW29*%
X303362500Y-45412500D03*
%TO.C,SW44*%
X303362500Y-64462500D03*
%TO.C,SW58*%
X303362500Y-83512500D03*
%TO.C,SW82*%
X303362500Y-126375000D03*
%TO.C,SW83*%
X334872669Y-44959735D03*
%TO.C,SW87*%
X334872669Y-64009735D03*
%TO.C,SW91*%
X334872669Y-83059735D03*
%TO.C,SW95*%
X334872669Y-102109735D03*
%TO.C,SW99*%
X334872669Y-121159735D03*
%TO.C,SW84*%
X353922669Y-44959735D03*
%TO.C,SW88*%
X353922669Y-64009735D03*
%TO.C,SW92*%
X353922669Y-83059735D03*
%TO.C,SW96*%
X353922669Y-102109735D03*
%TO.C,SW100*%
X353922669Y-121159735D03*
%TO.C,SW85*%
X372972669Y-44959735D03*
%TO.C,SW89*%
X372972669Y-64009735D03*
%TO.C,SW93*%
X372972669Y-83059735D03*
%TO.C,SW97*%
X372972669Y-102109735D03*
%TO.C,SW101*%
X372972669Y-121159735D03*
%TO.C,SW86*%
X392022669Y-44959735D03*
%TO.C,SW90*%
X392022669Y-64009735D03*
%TO.C,SW94*%
X392022669Y-83059735D03*
%TO.C,SW98*%
X392022669Y-102109735D03*
%TO.C,SW102*%
X392022669Y-121159735D03*
M02*
