%TF.GenerationSoftware,KiCad,Pcbnew,9.0.3*%
%TF.CreationDate,2026-01-06T15:55:55+03:00*%
%TF.ProjectId,Keyboard,4b657962-6f61-4726-942e-6b696361645f,rev?*%
%TF.SameCoordinates,Original*%
%TF.FileFunction,Paste,Top*%
%TF.FilePolarity,Positive*%
%FSLAX46Y46*%
G04 Gerber Fmt 4.6, Leading zero omitted, Abs format (unit mm)*
G04 Created by KiCad (PCBNEW 9.0.3) date 2026-01-06 15:55:55*
%MOMM*%
%LPD*%
G01*
G04 APERTURE LIST*
G04 Aperture macros list*
%AMRoundRect*
0 Rectangle with rounded corners*
0 $1 Rounding radius*
0 $2 $3 $4 $5 $6 $7 $8 $9 X,Y pos of 4 corners*
0 Add a 4 corners polygon primitive as box body*
4,1,4,$2,$3,$4,$5,$6,$7,$8,$9,$2,$3,0*
0 Add four circle primitives for the rounded corners*
1,1,$1+$1,$2,$3*
1,1,$1+$1,$4,$5*
1,1,$1+$1,$6,$7*
1,1,$1+$1,$8,$9*
0 Add four rect primitives between the rounded corners*
20,1,$1+$1,$2,$3,$4,$5,0*
20,1,$1+$1,$4,$5,$6,$7,0*
20,1,$1+$1,$6,$7,$8,$9,0*
20,1,$1+$1,$8,$9,$2,$3,0*%
G04 Aperture macros list end*
%ADD10C,0.000000*%
%ADD11RoundRect,0.250000X-0.475000X0.250000X-0.475000X-0.250000X0.475000X-0.250000X0.475000X0.250000X0*%
%ADD12RoundRect,0.250000X0.475000X-0.250000X0.475000X0.250000X-0.475000X0.250000X-0.475000X-0.250000X0*%
%ADD13RoundRect,0.250000X-0.250000X-0.475000X0.250000X-0.475000X0.250000X0.475000X-0.250000X0.475000X0*%
%ADD14R,1.000000X0.600000*%
%ADD15RoundRect,0.150000X-0.512500X-0.150000X0.512500X-0.150000X0.512500X0.150000X-0.512500X0.150000X0*%
%ADD16R,0.600000X1.450000*%
%ADD17R,0.300000X1.450000*%
%ADD18RoundRect,0.250000X-0.262500X-0.450000X0.262500X-0.450000X0.262500X0.450000X-0.262500X0.450000X0*%
%ADD19RoundRect,0.250000X0.262500X0.450000X-0.262500X0.450000X-0.262500X-0.450000X0.262500X-0.450000X0*%
%ADD20RoundRect,0.250000X-0.450000X0.262500X-0.450000X-0.262500X0.450000X-0.262500X0.450000X0.262500X0*%
%ADD21RoundRect,0.250000X0.450000X-0.262500X0.450000X0.262500X-0.450000X0.262500X-0.450000X-0.262500X0*%
%ADD22R,1.750000X4.500001*%
%ADD23R,0.804800X0.249200*%
%ADD24RoundRect,0.150000X-0.825000X-0.150000X0.825000X-0.150000X0.825000X0.150000X-0.825000X0.150000X0*%
%ADD25R,0.400000X0.600000*%
%ADD26R,0.600000X0.400000*%
%ADD27RoundRect,0.250000X-0.320000X0.320000X-0.320000X-0.320000X0.320000X-0.320000X0.320000X0.320000X0*%
%ADD28RoundRect,0.075000X-0.075000X0.437500X-0.075000X-0.437500X0.075000X-0.437500X0.075000X0.437500X0*%
%ADD29RoundRect,0.075000X-0.437500X0.075000X-0.437500X-0.075000X0.437500X-0.075000X0.437500X0.075000X0*%
G04 APERTURE END LIST*
D10*
%TO.C,U1*%
G36*
X21572600Y-7900000D02*
G01*
X20022600Y-7900000D01*
X20022600Y-6599999D01*
X21572600Y-6599999D01*
X21572600Y-7900000D01*
G37*
G36*
X21572600Y-6399999D02*
G01*
X20022600Y-6399999D01*
X20022600Y-5099999D01*
X21572600Y-5099999D01*
X21572600Y-6399999D01*
G37*
G36*
X21572600Y-4899999D02*
G01*
X20022600Y-4899999D01*
X20022600Y-3599998D01*
X21572600Y-3599998D01*
X21572600Y-4899999D01*
G37*
%TD*%
D11*
%TO.C,C1*%
X36750000Y-27950000D03*
X36750000Y-26050000D03*
%TD*%
%TO.C,C2*%
X39250000Y-27450000D03*
X39250000Y-25550000D03*
%TD*%
D12*
%TO.C,C4*%
X10500000Y-6550000D03*
X10500000Y-8450000D03*
%TD*%
D13*
%TO.C,C7*%
X67700000Y-6500000D03*
X65800000Y-6500000D03*
%TD*%
D14*
%TO.C,D104*%
X11850000Y-26950000D03*
X11850000Y-25650000D03*
X13850000Y-25650000D03*
X13850000Y-26950000D03*
%TD*%
%TO.C,D105*%
X50050000Y-26950000D03*
X50050000Y-25650000D03*
X52050000Y-25650000D03*
X52050000Y-26950000D03*
%TD*%
%TO.C,D106*%
X69050000Y-26950000D03*
X69050000Y-25650000D03*
X71050000Y-25650000D03*
X71050000Y-26950000D03*
%TD*%
%TO.C,D107*%
X88050000Y-26950000D03*
X88050000Y-25650000D03*
X90050000Y-25650000D03*
X90050000Y-26950000D03*
%TD*%
%TO.C,D108*%
X107050000Y-26950000D03*
X107050000Y-25650000D03*
X109050000Y-25650000D03*
X109050000Y-26950000D03*
%TD*%
%TO.C,D109*%
X135750000Y-26950000D03*
X135750000Y-25650000D03*
X137750000Y-25650000D03*
X137750000Y-26950000D03*
%TD*%
%TO.C,D110*%
X154750000Y-26950000D03*
X154750000Y-25650000D03*
X156750000Y-25650000D03*
X156750000Y-26950000D03*
%TD*%
%TO.C,D111*%
X173750000Y-26950000D03*
X173750000Y-25650000D03*
X175750000Y-25650000D03*
X175750000Y-26950000D03*
%TD*%
%TO.C,D112*%
X192750000Y-26950000D03*
X192750000Y-25650000D03*
X194750000Y-25650000D03*
X194750000Y-26950000D03*
%TD*%
%TO.C,D113*%
X220450000Y-26950000D03*
X220450000Y-25650000D03*
X222450000Y-25650000D03*
X222450000Y-26950000D03*
%TD*%
%TO.C,D114*%
X239450000Y-26950000D03*
X239450000Y-25650000D03*
X241450000Y-25650000D03*
X241450000Y-26950000D03*
%TD*%
%TO.C,D115*%
X258450000Y-26950000D03*
X258450000Y-25650000D03*
X260450000Y-25650000D03*
X260450000Y-26950000D03*
%TD*%
%TO.C,D116*%
X277450000Y-26950000D03*
X277450000Y-25650000D03*
X279450000Y-25650000D03*
X279450000Y-26950000D03*
%TD*%
%TO.C,D117*%
X302250000Y-26950000D03*
X302250000Y-25650000D03*
X304250000Y-25650000D03*
X304250000Y-26950000D03*
%TD*%
%TO.C,D118*%
X11750000Y-50750000D03*
X11750000Y-49450000D03*
X13750000Y-49450000D03*
X13750000Y-50750000D03*
%TD*%
%TO.C,D119*%
X30800000Y-50750000D03*
X30800000Y-49450000D03*
X32800000Y-49450000D03*
X32800000Y-50750000D03*
%TD*%
%TO.C,D120*%
X49850000Y-50750000D03*
X49850000Y-49450000D03*
X51850000Y-49450000D03*
X51850000Y-50750000D03*
%TD*%
%TO.C,D121*%
X68900000Y-50750000D03*
X68900000Y-49450000D03*
X70900000Y-49450000D03*
X70900000Y-50750000D03*
%TD*%
%TO.C,D122*%
X87950000Y-50750000D03*
X87950000Y-49450000D03*
X89950000Y-49450000D03*
X89950000Y-50750000D03*
%TD*%
%TO.C,D123*%
X107000000Y-50750000D03*
X107000000Y-49450000D03*
X109000000Y-49450000D03*
X109000000Y-50750000D03*
%TD*%
%TO.C,D124*%
X126050000Y-50750000D03*
X126050000Y-49450000D03*
X128050000Y-49450000D03*
X128050000Y-50750000D03*
%TD*%
%TO.C,D125*%
X145100000Y-50750000D03*
X145100000Y-49450000D03*
X147100000Y-49450000D03*
X147100000Y-50750000D03*
%TD*%
%TO.C,D126*%
X164150000Y-50750000D03*
X164150000Y-49450000D03*
X166150000Y-49450000D03*
X166150000Y-50750000D03*
%TD*%
%TO.C,D127*%
X183200000Y-50750000D03*
X183200000Y-49450000D03*
X185200000Y-49450000D03*
X185200000Y-50750000D03*
%TD*%
%TO.C,D128*%
X202250000Y-50750000D03*
X202250000Y-49450000D03*
X204250000Y-49450000D03*
X204250000Y-50750000D03*
%TD*%
%TO.C,D129*%
X221300000Y-50750000D03*
X221300000Y-49450000D03*
X223300000Y-49450000D03*
X223300000Y-50750000D03*
%TD*%
%TO.C,D130*%
X240350000Y-50750000D03*
X240350000Y-49450000D03*
X242350000Y-49450000D03*
X242350000Y-50750000D03*
%TD*%
%TO.C,D131*%
X269050000Y-50750000D03*
X269050000Y-49450000D03*
X271050000Y-49450000D03*
X271050000Y-50750000D03*
%TD*%
%TO.C,D132*%
X304250000Y-50750000D03*
X304250000Y-49450000D03*
X302250000Y-49450000D03*
X302250000Y-50750000D03*
%TD*%
%TO.C,D133*%
X16550000Y-69800000D03*
X16550000Y-68500000D03*
X18550000Y-68500000D03*
X18550000Y-69800000D03*
%TD*%
%TO.C,D134*%
X40350000Y-69800000D03*
X40350000Y-68500000D03*
X42350000Y-68500000D03*
X42350000Y-69800000D03*
%TD*%
%TO.C,D135*%
X59400000Y-69800000D03*
X59400000Y-68500000D03*
X61400000Y-68500000D03*
X61400000Y-69800000D03*
%TD*%
%TO.C,D136*%
X78450000Y-69800000D03*
X78450000Y-68500000D03*
X80450000Y-68500000D03*
X80450000Y-69800000D03*
%TD*%
%TO.C,D137*%
X97500000Y-69800000D03*
X97500000Y-68500000D03*
X99500000Y-68500000D03*
X99500000Y-69800000D03*
%TD*%
%TO.C,D138*%
X116550000Y-69800000D03*
X116550000Y-68500000D03*
X118550000Y-68500000D03*
X118550000Y-69800000D03*
%TD*%
%TO.C,D139*%
X135600000Y-69800000D03*
X135600000Y-68500000D03*
X137600000Y-68500000D03*
X137600000Y-69800000D03*
%TD*%
%TO.C,D140*%
X154650000Y-69800000D03*
X154650000Y-68500000D03*
X156650000Y-68500000D03*
X156650000Y-69800000D03*
%TD*%
%TO.C,D141*%
X173700000Y-69800000D03*
X173700000Y-68500000D03*
X175700000Y-68500000D03*
X175700000Y-69800000D03*
%TD*%
%TO.C,D142*%
X192750000Y-69800000D03*
X192750000Y-68500000D03*
X194750000Y-68500000D03*
X194750000Y-69800000D03*
%TD*%
%TO.C,D143*%
X211800000Y-69800000D03*
X211800000Y-68500000D03*
X213800000Y-68500000D03*
X213800000Y-69800000D03*
%TD*%
%TO.C,D144*%
X230850000Y-69800000D03*
X230850000Y-68500000D03*
X232850000Y-68500000D03*
X232850000Y-69800000D03*
%TD*%
%TO.C,D145*%
X249900000Y-69800000D03*
X249900000Y-68500000D03*
X251900000Y-68500000D03*
X251900000Y-69800000D03*
%TD*%
%TO.C,D146*%
X273750000Y-69800000D03*
X273750000Y-68500000D03*
X275750000Y-68500000D03*
X275750000Y-69800000D03*
%TD*%
%TO.C,D147*%
X302250000Y-69800000D03*
X302250000Y-68500000D03*
X304250000Y-68500000D03*
X304250000Y-69800000D03*
%TD*%
%TO.C,D148*%
X18850000Y-88850000D03*
X18850000Y-87550000D03*
X20850000Y-87550000D03*
X20850000Y-88850000D03*
%TD*%
%TO.C,D149*%
X45050000Y-88850000D03*
X45050000Y-87550000D03*
X47050000Y-87550000D03*
X47050000Y-88850000D03*
%TD*%
%TO.C,D150*%
X64150000Y-88850000D03*
X64150000Y-87550000D03*
X66150000Y-87550000D03*
X66150000Y-88850000D03*
%TD*%
%TO.C,D151*%
X83200000Y-88850000D03*
X83200000Y-87550000D03*
X85200000Y-87550000D03*
X85200000Y-88850000D03*
%TD*%
%TO.C,D152*%
X102250000Y-88850000D03*
X102250000Y-87550000D03*
X104250000Y-87550000D03*
X104250000Y-88850000D03*
%TD*%
%TO.C,D153*%
X121250000Y-88850000D03*
X121250000Y-87550000D03*
X123250000Y-87550000D03*
X123250000Y-88850000D03*
%TD*%
%TO.C,D154*%
X140300000Y-88850000D03*
X140300000Y-87550000D03*
X142300000Y-87550000D03*
X142300000Y-88850000D03*
%TD*%
%TO.C,D155*%
X159350000Y-88850000D03*
X159350000Y-87550000D03*
X161350000Y-87550000D03*
X161350000Y-88850000D03*
%TD*%
%TO.C,D156*%
X178400000Y-88850000D03*
X178400000Y-87550000D03*
X180400000Y-87550000D03*
X180400000Y-88850000D03*
%TD*%
%TO.C,D157*%
X197450000Y-88850000D03*
X197450000Y-87550000D03*
X199450000Y-87550000D03*
X199450000Y-88850000D03*
%TD*%
%TO.C,D158*%
X216500000Y-88850000D03*
X216500000Y-87550000D03*
X218500000Y-87550000D03*
X218500000Y-88850000D03*
%TD*%
%TO.C,D159*%
X235550000Y-88850000D03*
X235550000Y-87550000D03*
X237550000Y-87550000D03*
X237550000Y-88850000D03*
%TD*%
%TO.C,D160*%
X266550000Y-88850000D03*
X266550000Y-87550000D03*
X268550000Y-87550000D03*
X268550000Y-88850000D03*
%TD*%
%TO.C,D161*%
X302250000Y-88850000D03*
X302250000Y-87550000D03*
X304250000Y-87550000D03*
X304250000Y-88850000D03*
%TD*%
%TO.C,D162*%
X23600000Y-107900000D03*
X23600000Y-106600000D03*
X25600000Y-106600000D03*
X25600000Y-107900000D03*
%TD*%
%TO.C,D163*%
X54550000Y-107900000D03*
X54550000Y-106600000D03*
X56550000Y-106600000D03*
X56550000Y-107900000D03*
%TD*%
%TO.C,D164*%
X73550000Y-107900000D03*
X73550000Y-106600000D03*
X75550000Y-106600000D03*
X75550000Y-107900000D03*
%TD*%
%TO.C,D165*%
X92750000Y-107900000D03*
X92750000Y-106600000D03*
X94750000Y-106600000D03*
X94750000Y-107900000D03*
%TD*%
%TO.C,D166*%
X111750000Y-107900000D03*
X111750000Y-106600000D03*
X113750000Y-106600000D03*
X113750000Y-107900000D03*
%TD*%
%TO.C,D167*%
X130750000Y-107900000D03*
X130750000Y-106600000D03*
X132750000Y-106600000D03*
X132750000Y-107900000D03*
%TD*%
%TO.C,D168*%
X149800000Y-107900000D03*
X149800000Y-106600000D03*
X151800000Y-106600000D03*
X151800000Y-107900000D03*
%TD*%
%TO.C,D169*%
X168850000Y-107900000D03*
X168850000Y-106600000D03*
X170850000Y-106600000D03*
X170850000Y-107900000D03*
%TD*%
%TO.C,D170*%
X187900000Y-107900000D03*
X187900000Y-106600000D03*
X189900000Y-106600000D03*
X189900000Y-107900000D03*
%TD*%
%TO.C,D171*%
X206950000Y-107900000D03*
X206950000Y-106600000D03*
X208950000Y-106600000D03*
X208950000Y-107900000D03*
%TD*%
%TO.C,D172*%
X226000000Y-107900000D03*
X226000000Y-106600000D03*
X228000000Y-106600000D03*
X228000000Y-107900000D03*
%TD*%
%TO.C,D173*%
X252250000Y-107900000D03*
X252250000Y-106600000D03*
X254250000Y-106600000D03*
X254250000Y-107900000D03*
%TD*%
%TO.C,D174*%
X283100000Y-112650000D03*
X283100000Y-111350000D03*
X285100000Y-111350000D03*
X285100000Y-112650000D03*
%TD*%
%TO.C,D175*%
X11750000Y-126950000D03*
X11750000Y-125650000D03*
X13750000Y-125650000D03*
X13750000Y-126950000D03*
%TD*%
%TO.C,D176*%
X30750000Y-127000000D03*
X30750000Y-125700000D03*
X32750000Y-125700000D03*
X32750000Y-127000000D03*
%TD*%
%TO.C,D177*%
X49800000Y-126950000D03*
X49800000Y-125650000D03*
X51800000Y-125650000D03*
X51800000Y-126950000D03*
%TD*%
%TO.C,D178*%
X68850000Y-126950000D03*
X68850000Y-125650000D03*
X70850000Y-125650000D03*
X70850000Y-126950000D03*
%TD*%
%TO.C,D179*%
X135550000Y-126950000D03*
X135550000Y-125650000D03*
X137550000Y-125650000D03*
X137550000Y-126950000D03*
%TD*%
%TO.C,D180*%
X202250000Y-126950000D03*
X202250000Y-125650000D03*
X204250000Y-125650000D03*
X204250000Y-126950000D03*
%TD*%
%TO.C,D181*%
X221250000Y-126950000D03*
X221250000Y-125650000D03*
X223250000Y-125650000D03*
X223250000Y-126950000D03*
%TD*%
%TO.C,D182*%
X240300000Y-126950000D03*
X240300000Y-125650000D03*
X242300000Y-125650000D03*
X242300000Y-126950000D03*
%TD*%
%TO.C,D183*%
X264050000Y-131700000D03*
X264050000Y-130400000D03*
X266050000Y-130400000D03*
X266050000Y-131700000D03*
%TD*%
%TO.C,D184*%
X283200000Y-131700000D03*
X283200000Y-130400000D03*
X285200000Y-130400000D03*
X285200000Y-131700000D03*
%TD*%
%TO.C,D185*%
X302250000Y-131700000D03*
X302250000Y-130400000D03*
X304250000Y-130400000D03*
X304250000Y-131700000D03*
%TD*%
%TO.C,D186*%
X335722669Y-50259735D03*
X335722669Y-48959735D03*
X333722669Y-48959735D03*
X333722669Y-50259735D03*
%TD*%
%TO.C,D187*%
X352772669Y-50259735D03*
X352772669Y-48959735D03*
X354772669Y-48959735D03*
X354772669Y-50259735D03*
%TD*%
%TO.C,D188*%
X371822669Y-50259735D03*
X371822669Y-48959735D03*
X373822669Y-48959735D03*
X373822669Y-50259735D03*
%TD*%
%TO.C,D189*%
X390872669Y-50259735D03*
X390872669Y-48959735D03*
X392872669Y-48959735D03*
X392872669Y-50259735D03*
%TD*%
%TO.C,D190*%
X333722669Y-69309735D03*
X333722669Y-68009735D03*
X335722669Y-68009735D03*
X335722669Y-69309735D03*
%TD*%
%TO.C,D191*%
X352772669Y-69309735D03*
X352772669Y-68009735D03*
X354772669Y-68009735D03*
X354772669Y-69309735D03*
%TD*%
%TO.C,D192*%
X371822669Y-69309735D03*
X371822669Y-68009735D03*
X373822669Y-68009735D03*
X373822669Y-69309735D03*
%TD*%
%TO.C,D193*%
X390872669Y-69309735D03*
X390872669Y-68009735D03*
X392872669Y-68009735D03*
X392872669Y-69309735D03*
%TD*%
%TO.C,D194*%
X333722669Y-88359735D03*
X333722669Y-87059735D03*
X335722669Y-87059735D03*
X335722669Y-88359735D03*
%TD*%
%TO.C,D195*%
X352772669Y-88359735D03*
X352772669Y-87059735D03*
X354772669Y-87059735D03*
X354772669Y-88359735D03*
%TD*%
%TO.C,D196*%
X371822669Y-88359735D03*
X371822669Y-87059735D03*
X373822669Y-87059735D03*
X373822669Y-88359735D03*
%TD*%
%TO.C,D197*%
X390872669Y-88359735D03*
X390872669Y-87059735D03*
X392872669Y-87059735D03*
X392872669Y-88359735D03*
%TD*%
%TO.C,D198*%
X335722669Y-107409735D03*
X335722669Y-106109735D03*
X333722669Y-106109735D03*
X333722669Y-107409735D03*
%TD*%
%TO.C,D199*%
X352772669Y-107409735D03*
X352772669Y-106109735D03*
X354772669Y-106109735D03*
X354772669Y-107409735D03*
%TD*%
%TO.C,D200*%
X371822669Y-107409735D03*
X371822669Y-106109735D03*
X373822669Y-106109735D03*
X373822669Y-107409735D03*
%TD*%
%TO.C,D201*%
X390872669Y-107409735D03*
X390872669Y-106109735D03*
X392872669Y-106109735D03*
X392872669Y-107409735D03*
%TD*%
%TO.C,D202*%
X335722669Y-126459735D03*
X335722669Y-125159735D03*
X333722669Y-125159735D03*
X333722669Y-126459735D03*
%TD*%
%TO.C,D203*%
X352922669Y-126459735D03*
X352922669Y-125159735D03*
X354922669Y-125159735D03*
X354922669Y-126459735D03*
%TD*%
%TO.C,D204*%
X371822669Y-126459735D03*
X371822669Y-125159735D03*
X373822669Y-125159735D03*
X373822669Y-126459735D03*
%TD*%
%TO.C,D205*%
X390872669Y-126459735D03*
X390872669Y-125159735D03*
X392872669Y-125159735D03*
X392872669Y-126459735D03*
%TD*%
D15*
%TO.C,D206*%
X344865169Y-29932235D03*
X342590169Y-30882235D03*
X342590169Y-28982235D03*
%TD*%
D16*
%TO.C,J1*%
X47500000Y-6445000D03*
X46700000Y-6445000D03*
D17*
X45500000Y-6445000D03*
X44500000Y-6445000D03*
X44000000Y-6445000D03*
X43000000Y-6445000D03*
D16*
X41800000Y-6445000D03*
X41000000Y-6445000D03*
X41000000Y-6445000D03*
X41800000Y-6445000D03*
D17*
X42500000Y-6445000D03*
X43500000Y-6445000D03*
X45000000Y-6445000D03*
X46000000Y-6445000D03*
D16*
X46700000Y-6445000D03*
X47500000Y-6445000D03*
%TD*%
D18*
%TO.C,R3*%
X17162500Y-6500000D03*
X15337500Y-6500000D03*
%TD*%
D19*
%TO.C,R4*%
X15966225Y-8430038D03*
X17791225Y-8430038D03*
%TD*%
D20*
%TO.C,R6*%
X12500000Y-8412500D03*
X12500000Y-6587500D03*
%TD*%
D19*
%TO.C,R7*%
X11337500Y-4500000D03*
X13162500Y-4500000D03*
%TD*%
D21*
%TO.C,R12*%
X59250000Y-21087500D03*
X59250000Y-22912500D03*
%TD*%
%TO.C,R13*%
X61250000Y-21087500D03*
X61250000Y-22912500D03*
%TD*%
%TO.C,R14*%
X337227669Y-26519735D03*
X337227669Y-28344735D03*
%TD*%
D20*
%TO.C,R15*%
X333727669Y-17844735D03*
X333727669Y-16019735D03*
%TD*%
%TO.C,R16*%
X333727669Y-14344735D03*
X333727669Y-12519735D03*
%TD*%
%TO.C,R17*%
X340227669Y-28844735D03*
X340227669Y-27019735D03*
%TD*%
D21*
%TO.C,R18*%
X340227669Y-32344735D03*
X340227669Y-30519735D03*
%TD*%
D18*
%TO.C,R19*%
X17162500Y-4500000D03*
X15337500Y-4500000D03*
%TD*%
D20*
%TO.C,R21*%
X25000000Y-7412500D03*
X25000000Y-5587500D03*
%TD*%
D21*
%TO.C,R22*%
X40250000Y-16587500D03*
X40250000Y-18412500D03*
%TD*%
D19*
%TO.C,R23*%
X350640169Y-28432235D03*
X348815169Y-28432235D03*
%TD*%
%TO.C,R24*%
X346815169Y-32432235D03*
X348640169Y-32432235D03*
%TD*%
%TO.C,R25*%
X351140169Y-30432235D03*
X349315169Y-30432235D03*
%TD*%
D18*
%TO.C,R27*%
X350815169Y-32432235D03*
X352640169Y-32432235D03*
%TD*%
D22*
%TO.C,U1*%
X20797600Y-5749999D03*
D23*
X22250000Y-4000000D03*
X22250000Y-4499999D03*
X22250000Y-5000001D03*
X22250000Y-5499999D03*
X22250000Y-5999999D03*
X22250000Y-6500000D03*
X22250000Y-6999999D03*
X22250000Y-7500001D03*
X19345200Y-7499998D03*
X19345200Y-6999999D03*
X19345200Y-6499997D03*
X19345200Y-5999999D03*
X19345200Y-5499999D03*
X19345200Y-4999998D03*
X19345200Y-4499999D03*
X19345200Y-3999997D03*
%TD*%
D24*
%TO.C,U2*%
X59725000Y-5095000D03*
X59725000Y-6365000D03*
X59725000Y-7635000D03*
X59725000Y-8905000D03*
X54775000Y-8905000D03*
X54775000Y-7635000D03*
X54775000Y-6365000D03*
X54775000Y-5095000D03*
%TD*%
D25*
%TO.C,U3*%
X34515794Y-16609887D03*
X33715794Y-16609887D03*
X32915794Y-16609887D03*
X32115794Y-16609887D03*
X31315794Y-16609887D03*
X30515794Y-16609887D03*
D26*
X37165794Y-12309887D03*
X36265794Y-13009887D03*
X37165794Y-13409887D03*
X36265794Y-13809887D03*
X37165794Y-14209887D03*
X36265794Y-14609887D03*
X36265794Y-15409887D03*
X37165794Y-15809887D03*
X36265794Y-16209887D03*
X37165794Y-16609887D03*
X36265794Y-17009887D03*
X37165794Y-17409887D03*
X36265794Y-17809887D03*
X36265794Y-18609887D03*
X37165794Y-19009887D03*
X36265794Y-19409887D03*
X37165794Y-19809887D03*
X36265794Y-20209887D03*
X37165794Y-20609887D03*
X36265794Y-21009887D03*
X37165794Y-21409887D03*
X37165794Y-22209887D03*
D25*
X37315794Y-23209887D03*
X36515794Y-23209887D03*
X35715794Y-23209887D03*
X34915794Y-23209887D03*
X34515794Y-22309887D03*
X34115794Y-23209887D03*
X33715794Y-22309887D03*
X33315794Y-23209887D03*
X32915794Y-22309887D03*
X32515794Y-23209887D03*
X32115794Y-22309887D03*
X31715794Y-23209887D03*
X31315794Y-22309887D03*
X30915794Y-23209887D03*
X30515794Y-22309887D03*
X30115794Y-23209887D03*
X29315794Y-23209887D03*
X28515794Y-23209887D03*
X27715794Y-23209887D03*
D26*
X27865794Y-19809887D03*
X28765794Y-19409887D03*
X27865794Y-19009887D03*
X28765794Y-18609887D03*
X27865794Y-18209887D03*
X28765794Y-17809887D03*
X27865794Y-17409887D03*
X28765794Y-17009887D03*
X27865794Y-16609887D03*
X28765794Y-16209887D03*
X27865794Y-15809887D03*
X27865794Y-14209887D03*
X27865794Y-13409887D03*
X27865794Y-12309887D03*
%TD*%
D27*
%TO.C,U7*%
X331647669Y-29512235D03*
X330227669Y-29512235D03*
X328807669Y-29512235D03*
X331647669Y-30932235D03*
X330227669Y-30932235D03*
X328807669Y-30932235D03*
X331647669Y-32352235D03*
X330227669Y-32352235D03*
X328807669Y-32352235D03*
D28*
X332177669Y-28094735D03*
X331527669Y-28094735D03*
X330877669Y-28094735D03*
X330227669Y-28094735D03*
X329577669Y-28094735D03*
X328927669Y-28094735D03*
X328277669Y-28094735D03*
D29*
X327390169Y-28982235D03*
X327390169Y-29632235D03*
X327390169Y-30282235D03*
X327390169Y-30932235D03*
X327390169Y-31582235D03*
X327390169Y-32232235D03*
X327390169Y-32882235D03*
D28*
X328277669Y-33769735D03*
X328927669Y-33769735D03*
X329577669Y-33769735D03*
X330227669Y-33769735D03*
X330877669Y-33769735D03*
X331527669Y-33769735D03*
X332177669Y-33769735D03*
D29*
X333065169Y-32882235D03*
X333065169Y-32232235D03*
X333065169Y-31582235D03*
X333065169Y-30932235D03*
X333065169Y-30282235D03*
X333065169Y-29632235D03*
X333065169Y-28982235D03*
%TD*%
M02*
